<?xml version="1.0" encoding="UTF-8"?>
<svg width="29px" height="29px" viewBox="0 0 29 29" version="1.1" xmlns="http://www.w3.org/2000/svg" xmlns:xlink="http://www.w3.org/1999/xlink">
    <!-- Generator: Sketch 51 (57462) - http://www.bohemiancoding.com/sketch -->
    <title>Shape</title>
    <desc>Created with Sketch.</desc>
    <defs></defs>
    <g id="Page-1" stroke="none" stroke-width="1" fill="none" fill-rule="evenodd">
        <g id="noun_Close_1816396_000000" fill="#BDBDBD" fill-rule="nonzero">
            <path d="M17.354155,14.4999663 L28.4113191,3.44280218 C29.196227,2.6578944 29.196227,1.37358864 28.4113191,0.588680846 C27.6264113,-0.196226949 26.3421055,-0.196226949 25.5571978,0.588680846 L14.5000337,11.6458449 L3.44280218,0.588680846 C2.6578944,-0.196226949 1.37358864,-0.196226949 0.588680846,0.588680846 C-0.196226949,1.37358864 -0.196226949,2.6578944 0.588680846,3.44280218 L11.6459123,14.4999663 L0.588680846,25.5571978 C-0.196226949,26.3421055 -0.196226949,27.6264113 0.588680846,28.4113191 C1.37358864,29.196227 2.6578944,29.196227 3.44280218,28.4113191 L14.5,17.3541213 L25.5571978,28.4113191 C26.3421055,29.196227 27.6264113,29.196227 28.4113191,28.4113191 C29.196227,27.6264113 29.196227,26.3421055 28.4113191,25.5571978 L17.354155,14.4999663 Z" id="Shape"></path>
        </g>
    </g>
</svg>