<?xml version="1.0" encoding="UTF-8"?>
<svg width="42px" height="38px" viewBox="0 0 42 38" version="1.1" xmlns="http://www.w3.org/2000/svg" xmlns:xlink="http://www.w3.org/1999/xlink">
    <!-- Generator: Sketch 51 (57462) - http://www.bohemiancoding.com/sketch -->
    <title>user</title>
    <desc>Created with Sketch.</desc>
    <defs></defs>
    <g id="Page-1" stroke="none" stroke-width="1" fill="none" fill-rule="evenodd">
        <g id="noun_Speech-Bubble_485616_000000" fill="#BDBDBD">
            <g id="user">
                <path d="M26.6749,0 L15.3251,0 C6.874,0 0,6.874 0,15.3244 C0,23.3387 6.1866,29.9327 14.0343,30.5907 L14.0343,36.2208 C14.0343,37.436 15.5561,38.066 16.4143,37.2043 L22.9691,30.6488 L26.6749,30.6488 C35.126,30.6488 42,23.7741 42,15.3244 C42,6.874 35.126,0 26.6749,0 Z M26.6749,27.8621 L22.3888,27.8621 L22.3888,27.8628 C22.0332,27.8635 21.6783,27.9993 21.4081,28.2702 L16.8203,32.858 L16.8203,29.2558 C16.8203,28.4858 16.1966,27.8628 15.4273,27.8628 L15.3251,27.8628 C8.4112,27.8628 2.786,22.2376 2.786,15.3251 C2.786,8.4112 8.4112,2.7867 15.3251,2.7867 L26.6756,2.7867 C33.5895,2.7867 39.2147,8.4112 39.2147,15.3251 C39.2147,22.2369 33.5888,27.8621 26.6749,27.8621 Z" id="Shape" fill-rule="nonzero"></path>
                <path d="M14,15.952 C14,15.1359959 14.2879971,14.4400029 14.864,13.864 C15.4400029,13.2879971 16.1359959,13 16.952,13 C17.7680041,13 18.4639971,13.2879971 19.04,13.864 C19.6160029,14.4400029 19.904,15.1359959 19.904,15.952 C19.904,16.7680041 19.6160029,17.4459973 19.04,17.986 C18.4639971,18.5260027 17.7680041,18.796 16.952,18.796 C16.1359959,18.796 15.4400029,18.5260027 14.864,17.986 C14.2879971,17.4459973 14,16.7680041 14,15.952 Z M23.108,15.952 C23.108,15.1359959 23.3959971,14.4400029 23.972,13.864 C24.5480029,13.2879971 25.2439959,13 26.06,13 C26.8760041,13 27.5719971,13.2879971 28.148,13.864 C28.7240029,14.4400029 29.012,15.1359959 29.012,15.952 C29.012,16.7680041 28.7240029,17.4459973 28.148,17.986 C27.5719971,18.5260027 26.8760041,18.796 26.06,18.796 C25.2439959,18.796 24.5480029,18.5260027 23.972,17.986 C23.3959971,17.4459973 23.108,16.7680041 23.108,15.952 Z" id=".." fill-rule="evenodd"></path>
            </g>
        </g>
    </g>
</svg>